<?xml version="1.0" encoding="UTF-8"?>
<svg width="24px" height="24px" viewBox="0 0 24 24" version="1.1" xmlns="http://www.w3.org/2000/svg" xmlns:xlink="http://www.w3.org/1999/xlink">
    <!-- Generator: Sketch 50.2 (55047) - http://www.bohemiancoding.com/sketch -->
    <title>instagram</title>
    <desc>Created with Sketch.</desc>
    <defs></defs>
    <g id="Symbols" stroke="none" stroke-width="1" fill="none" fill-rule="evenodd">
        <g id="Footer" transform="translate(-1039.000000, -275.000000)">
            <g id="instagram" transform="translate(1039.000000, 275.000000)">
                <rect id="Rectangle" x="0" y="0" width="24" height="24"></rect>
                <circle id="Oval" stroke="#6750AB" stroke-width="2" cx="12" cy="12" r="11"></circle>
                <path d="M15.3462328,6.54545455 L8.65376721,6.54545455 C7.4915334,6.54545455 6.54545455,7.49089199 6.54545455,8.65376721 L6.54545455,15.3462328 C6.54545455,16.509108 7.4915334,17.4545455 8.65376721,17.4545455 L15.3462328,17.4545455 C16.5084666,17.4545455 17.4545455,16.509108 17.4545455,15.3462328 L17.4545455,8.65376721 C17.4545455,7.49089199 16.5084666,6.54545455 15.3462328,6.54545455 L15.3462328,6.54545455 Z M15.9510818,7.80325836 L16.1922518,7.80197554 L16.1922518,9.65115881 L14.3488412,9.6569315 L14.3424271,7.80774823 L15.9510818,7.80325836 L15.9510818,7.80325836 Z M10.4432994,10.8800992 C10.7922261,10.3964765 11.359232,10.0796203 12,10.0796203 C12.640768,10.0796203 13.2077739,10.3964765 13.5567006,10.8800992 C13.7844009,11.1956726 13.9203797,11.5818011 13.9203797,12 C13.9203797,13.0583255 13.0589669,13.9197383 12,13.9197383 C10.9416745,13.9197383 10.0802617,13.0583255 10.0802617,12 C10.0802617,11.5818011 10.2162405,11.1956726 10.4432994,10.8800992 L10.4432994,10.8800992 Z M16.3917301,15.3462328 C16.3917301,15.9228598 15.9228598,16.3917301 15.3462328,16.3917301 L8.65376721,16.3917301 C8.07714017,16.3917301 7.60826991,15.9228598 7.60826991,15.3462328 L7.60826991,10.8800992 L9.23744976,10.8800992 C9.09633969,11.2264603 9.01744634,11.6042504 9.01744634,12 C9.01744634,13.6445737 10.3554263,14.9831951 12,14.9831951 C13.6452151,14.9831951 14.9831951,13.6445737 14.9831951,12 C14.9831951,11.6042504 14.9030189,11.2264603 14.7631917,10.8800992 L16.3917301,10.8800992 L16.3917301,15.3462328 L16.3917301,15.3462328 Z" id="Shape" fill="#6750AB"></path>
            </g>
        </g>
    </g>
</svg>