<?xml version="1.0" encoding="iso-8859-1"?>
<!-- Generator: Adobe Illustrator 16.0.0, SVG Export Plug-In . SVG Version: 6.00 Build 0)  -->
<!DOCTYPE svg PUBLIC "-//W3C//DTD SVG 1.1//EN" "http://www.w3.org/Graphics/SVG/1.1/DTD/svg11.dtd">
<svg version="1.1" id="Layer_1" xmlns="http://www.w3.org/2000/svg" xmlns:xlink="http://www.w3.org/1999/xlink" x="0px" y="0px"
	 width="655px" height="150px" viewBox="0 0 655 150" style="enable-background:new 0 0 655 150;" xml:space="preserve">
<g>
	<path style="fill:#472F90;" d="M262.373,10.225v98.308h-19.24v-63.76l-27.724,45.608l-2.26,0.079l-27.597-45.446v63.519h-19.381
		V10.225h19.943l28.189,46.42l28.046-46.42H262.373z"/>
	<path style="fill:#472F90;" d="M290.88,80.866c2.434,8.801,9.034,13.201,19.804,13.201c6.926,0,12.17-2.339,15.729-7.022
		l14.605,8.426c-6.93,10.02-17.133,15.027-30.615,15.027c-11.611,0-20.927-3.511-27.949-10.533s-10.533-15.87-10.533-26.543
		c0-10.579,3.462-19.403,10.393-26.473c6.927-7.068,15.821-10.604,26.685-10.604c10.297,0,18.795,3.56,25.488,10.674
		c6.693,7.116,10.043,15.918,10.043,26.403c0,2.341-0.234,4.823-0.703,7.443H290.88z M290.599,66.822h35.813
		c-1.031-4.775-3.16-8.332-6.391-10.673c-3.23-2.339-6.904-3.511-11.023-3.511c-4.869,0-8.896,1.242-12.079,3.722
		C293.735,58.841,291.628,62.328,290.599,66.822z"/>
	<path style="fill:#472F90;" d="M391.996,36.346c7.676,0,14.021,2.576,19.031,7.725c5.006,5.15,7.514,12.267,7.514,21.347v43.115
		h-18.117V67.665c0-4.681-1.264-8.262-3.793-10.744c-2.527-2.479-5.898-3.722-10.111-3.722c-4.684,0-8.426,1.453-11.234,4.354
		c-2.809,2.903-4.215,7.257-4.215,13.061v37.919h-18.115v-70.22h18.115v7.865C375.471,39.625,382.447,36.346,391.996,36.346z"/>
	<path style="fill:#472F90;" d="M474.016,38.312h19.381l-25.602,70.334c-3.652,10.026-8.492,17.312-14.523,21.858
		c-6.031,4.545-13.537,6.583-22.512,6.116v-16.853c4.867,0.092,8.729-0.937,11.586-3.09c2.855-2.155,5.127-5.618,6.812-10.393
		l-28.791-67.973h19.803l18.311,47.197L474.016,38.312z"/>
	<path style="fill:#472F90;" d="M554.77,99.755c-7.211,7.162-16.01,10.744-26.402,10.744s-19.17-3.582-26.334-10.744
		c-7.162-7.163-10.742-15.94-10.742-26.333s3.58-19.17,10.742-26.333c7.164-7.163,15.941-10.744,26.334-10.744
		s19.191,3.582,26.402,10.744c7.209,7.162,10.814,15.94,10.814,26.333S561.979,92.593,554.77,99.755z M514.814,87.326
		c3.604,3.651,8.121,5.477,13.553,5.477c5.428,0,9.971-1.826,13.621-5.477c3.652-3.651,5.479-8.286,5.479-13.903
		c0-5.618-1.826-10.252-5.479-13.904c-3.65-3.651-8.193-5.477-13.621-5.477c-5.432,0-9.949,1.826-13.553,5.477
		c-3.605,3.651-5.408,8.286-5.408,13.904C509.406,79.04,511.209,83.675,514.814,87.326z"/>
	<path style="fill:#472F90;" d="M633.977,99.755c-7.211,7.162-16.01,10.744-26.402,10.744s-19.17-3.582-26.334-10.744
		c-7.162-7.163-10.742-15.94-10.742-26.333s3.58-19.17,10.742-26.333c7.164-7.163,15.941-10.744,26.334-10.744
		s19.191,3.582,26.402,10.744c7.209,7.162,10.814,15.94,10.814,26.333S641.186,92.593,633.977,99.755z M594.021,87.326
		c3.604,3.651,8.121,5.477,13.553,5.477c5.428,0,9.971-1.826,13.621-5.477c3.652-3.651,5.479-8.286,5.479-13.903
		c0-5.618-1.826-10.252-5.479-13.904c-3.65-3.651-8.193-5.477-13.621-5.477c-5.432,0-9.949,1.826-13.553,5.477
		c-3.605,3.651-5.408,8.286-5.408,13.904C588.613,79.04,590.416,83.675,594.021,87.326z"/>
</g>
<g>
	<path style="fill:#FD8A11;" d="M178.751,113.343h2.689v20.244h-2.169l-10.412-15.125v15.125h-2.689v-20.244h2.08l10.5,15.203
		V113.343z"/>
	<path style="fill:#FD8A11;" d="M197.722,131.765c-1.485,1.465-3.287,2.198-5.408,2.198c-2.121,0-3.919-0.732-5.394-2.198
		c-1.475-1.465-2.212-3.268-2.212-5.408s0.737-3.943,2.212-5.408c1.475-1.465,3.272-2.198,5.394-2.198
		c2.121,0,3.923,0.733,5.408,2.198c1.485,1.465,2.227,3.268,2.227,5.408S199.207,130.3,197.722,131.765z M192.314,131.505
		c1.446,0,2.661-0.492,3.644-1.475c0.983-0.983,1.475-2.208,1.475-3.673c0-1.465-0.492-2.689-1.475-3.673
		c-0.983-0.983-2.198-1.475-3.644-1.475c-1.427,0-2.632,0.492-3.615,1.475s-1.475,2.208-1.475,3.673
		c0,1.465,0.491,2.689,1.475,3.673S190.887,131.505,192.314,131.505z"/>
	<path style="fill:#FD8A11;" d="M219.384,119.127h2.361l-4.212,14.46h-2.574l-3.449-10.844l-3.429,10.844h-2.691l-4.255-14.46h2.634
		l3.178,10.989l3.413-10.989h2.481l3.404,10.992L219.384,119.127z"/>
	<path style="fill:#FD8A11;" d="M241.941,119.127h2.689l-5.9,15.356c-0.618,1.639-1.48,2.887-2.588,3.745
		c-1.109,0.858-2.386,1.239-3.832,1.143v-2.343c1.766,0.135,3.062-0.851,3.888-2.956l0.276-0.543l-6.305-14.402h2.689l4.822,11.085
		L241.941,119.127z"/>
	<path style="fill:#FD8A11;" d="M258.368,131.765c-1.485,1.465-3.287,2.198-5.408,2.198c-2.121,0-3.919-0.732-5.394-2.198
		c-1.475-1.465-2.212-3.268-2.212-5.408s0.737-3.943,2.212-5.408c1.475-1.465,3.272-2.198,5.394-2.198
		c2.121,0,3.923,0.733,5.408,2.198c1.485,1.465,2.227,3.268,2.227,5.408S259.853,130.3,258.368,131.765z M252.96,131.505
		c1.446,0,2.661-0.492,3.644-1.475c0.983-0.983,1.475-2.208,1.475-3.673c0-1.465-0.492-2.689-1.475-3.673
		c-0.983-0.983-2.198-1.475-3.644-1.475c-1.427,0-2.632,0.492-3.615,1.475s-1.475,2.208-1.475,3.673
		c0,1.465,0.491,2.689,1.475,3.673S251.533,131.505,252.96,131.505z"/>
	<path style="fill:#FD8A11;" d="M273.551,119.127h2.516v14.46h-2.516v-2.082c-1.022,1.639-2.584,2.458-4.685,2.458
		c-1.697,0-3.056-0.535-4.078-1.605c-1.022-1.07-1.533-2.521-1.533-4.353v-8.878h2.516v8.734c0,1.176,0.318,2.087,0.955,2.733
		s1.513,0.969,2.632,0.969c1.253,0,2.265-0.391,3.037-1.171c0.771-0.781,1.157-1.981,1.157-3.601V119.127z"/>
	<path style="fill:#FD8A11;" d="M294.547,115.396c-2.545-0.212-3.817,0.887-3.817,3.297v0.434h3.817v2.429h-3.817v12.031h-2.516
		v-12.031h-2.314v-2.429h2.314v-0.434c0-1.947,0.544-3.422,1.634-4.425c1.089-1.002,2.656-1.436,4.7-1.301V115.396z"/>
	<path style="fill:#FD8A11;" d="M307.879,131.765c-1.484,1.465-3.287,2.198-5.408,2.198s-3.918-0.732-5.393-2.198
		s-2.212-3.268-2.212-5.408s0.737-3.943,2.212-5.408c1.475-1.465,3.272-2.198,5.393-2.198s3.924,0.733,5.408,2.198
		c1.484,1.465,2.227,3.268,2.227,5.408S309.363,130.3,307.879,131.765z M302.471,131.505c1.447,0,2.66-0.492,3.645-1.475
		c0.982-0.983,1.475-2.208,1.475-3.673c0-1.465-0.492-2.689-1.475-3.673c-0.984-0.983-2.197-1.475-3.645-1.475
		c-1.426,0-2.631,0.492-3.615,1.475c-0.983,0.983-1.474,2.208-1.474,3.673c0,1.465,0.491,2.689,1.474,3.673
		C299.84,131.013,301.045,131.505,302.471,131.505z"/>
	<path style="fill:#FD8A11;" d="M323.062,119.127h2.517v14.46h-2.517v-2.082c-1.021,1.639-2.583,2.458-4.685,2.458
		c-1.697,0-3.056-0.535-4.078-1.605c-1.021-1.07-1.532-2.521-1.532-4.353v-8.878h2.516v8.734c0,1.176,0.318,2.087,0.954,2.733
		c0.637,0.646,1.514,0.969,2.632,0.969c1.254,0,2.266-0.391,3.037-1.171c0.771-0.781,1.156-1.981,1.156-3.601V119.127z"/>
	<path style="fill:#FD8A11;" d="M336.596,118.751c1.697,0,3.056,0.535,4.078,1.605c1.021,1.07,1.533,2.521,1.533,4.353v8.878h-2.517
		v-8.734c0-1.176-0.318-2.087-0.954-2.733c-0.637-0.646-1.514-0.969-2.632-0.969c-1.254,0-2.266,0.39-3.036,1.171
		c-0.771,0.781-1.157,1.981-1.157,3.6v7.664h-2.516v-14.46h2.516v2.082C332.933,119.571,334.494,118.751,336.596,118.751z"/>
	<path style="fill:#FD8A11;" d="M357.68,113.343h2.516v20.244h-2.516V131.1c-1.254,1.909-3.075,2.863-5.466,2.863
		c-2.024,0-3.75-0.737-5.177-2.212s-2.141-3.272-2.141-5.394c0-2.121,0.714-3.919,2.141-5.394c1.427-1.475,3.152-2.212,5.177-2.212
		c2.391,0,4.212,0.954,5.466,2.863V113.343z M352.531,131.534c1.466,0,2.69-0.496,3.674-1.489c0.982-0.993,1.475-2.222,1.475-3.688
		c0-1.465-0.492-2.694-1.475-3.688c-0.983-0.993-2.208-1.489-3.674-1.489c-1.445,0-2.66,0.497-3.644,1.489
		c-0.983,0.993-1.475,2.223-1.475,3.688c0,1.465,0.491,2.694,1.475,3.688S351.086,131.534,352.531,131.534z"/>
	<path style="fill:#FD8A11;" d="M372.516,116.495c-0.482,0-0.888-0.164-1.215-0.492c-0.328-0.328-0.492-0.723-0.492-1.186
		c0-0.463,0.164-0.863,0.492-1.2c0.327-0.337,0.732-0.506,1.215-0.506c0.462,0,0.857,0.169,1.186,0.506
		c0.327,0.337,0.491,0.737,0.491,1.2c0,0.462-0.164,0.858-0.491,1.186C373.373,116.332,372.978,116.495,372.516,116.495z
		 M371.243,133.587v-14.46h2.516v14.46H371.243z"/>
	<path style="fill:#FD8A11;" d="M385.471,121.556h-3.847v7.837c0,0.713,0.14,1.22,0.419,1.518c0.279,0.299,0.709,0.454,1.287,0.463
		c0.578,0.01,1.292-0.004,2.141-0.043v2.256c-2.198,0.289-3.809,0.111-4.83-0.535c-1.022-0.646-1.533-1.865-1.533-3.658v-7.837
		h-2.862v-2.429h2.862v-3.297l2.517-0.752v4.049h3.847V121.556z"/>
	<path style="fill:#FD8A11;" d="M390.126,133.905c-0.521,0-0.964-0.184-1.33-0.55c-0.366-0.366-0.55-0.81-0.55-1.33
		s0.184-0.964,0.55-1.331c0.366-0.366,0.81-0.549,1.33-0.549c0.54,0,0.988,0.184,1.345,0.549c0.356,0.367,0.535,0.81,0.535,1.331
		s-0.179,0.964-0.535,1.33C391.114,133.722,390.666,133.905,390.126,133.905z"/>
</g>
<polyline style="fill:#2C166E;" points="25.863,124.672 25.863,135.474 71.706,124.672 87.028,126.305 124.583,135.474 
	124.583,125.928 25.234,124.672 "/>
<path style="fill:#472F90;" d="M84.355,12.262c-3.624,0-8.935,2.842-9.276,6.419c-0.342-3.577-5.652-6.419-9.276-6.419H10.917
	V127.31h64.027h0.271h64.027V12.262H84.355z"/>
<g>
	<path style="fill:#FFFFFF;" d="M71.706,120.652H17.699V18.919h47.476c3.606,0,6.531,2.924,6.531,6.531V120.652z"/>
	<path style="fill:#FFFFFF;" d="M78.655,120.652h54.007V18.919H85.187c-3.607,0-6.531,2.924-6.531,6.531V120.652z"/>
</g>
<path style="fill:#FD8A11;" d="M91.606,75.271h12.531c2.02,0,3.657,1.638,3.657,3.657v4.953c0,2.02-1.637,3.657-3.657,3.657H91.606
	c-2.02,0-3.657-1.637-3.657-3.657v-4.953C87.95,76.908,89.587,75.271,91.606,75.271z"/>
<path style="fill:#ED7A00;" d="M102.647,63.003h12.597c1.967,0,3.562,1.595,3.562,3.562v17.411c0,1.967-1.595,3.562-3.562,3.562
	h-12.597c-1.967,0-3.561-1.594-3.561-3.562V66.565C99.086,64.598,100.68,63.003,102.647,63.003z"/>
<path style="fill:#472F90;" d="M120.27,87.537h-5.861c-1.803,0-3.266-1.461-3.266-3.266V55.133c0-1.804,1.462-3.266,3.266-3.266
	h5.861c1.804,0,3.266,1.461,3.266,3.266v29.138C123.536,86.076,122.074,87.537,120.27,87.537z"/>
<g>
	<path style="fill:#FD8A11;" d="M35.408,63.506L35.408,63.506c1.596,0,2.889,1.293,2.889,2.889v35.167
		c0,1.595-1.293,2.889-2.889,2.889l0,0c-1.595,0-2.888-1.293-2.888-2.889V66.395C32.52,64.799,33.812,63.506,35.408,63.506z"/>
	<path style="fill:#FD8A11;" d="M38.297,66.939V40.815h-2.261c-4.994,0-9.043,4.048-9.043,9.043v19.928h8.415l2.889-2.429V66.939z"
		/>
</g>
<g>
	<path style="fill:#472F90;" d="M52.913,63.506L52.913,63.506c1.595,0,2.889,1.293,2.889,2.889v35.167
		c0,1.595-1.294,2.889-2.889,2.889l0,0c-1.595,0-2.888-1.293-2.888-2.889V66.395C50.024,64.799,51.317,63.506,52.913,63.506z"/>
	<ellipse style="fill:#472F90;" cx="52.913" cy="55.009" rx="10.651" ry="13.774"/>
</g>
</svg>
