<?xml version="1.0" encoding="UTF-8"?>
<svg width="24px" height="24px" viewBox="0 0 24 24" version="1.1" xmlns="http://www.w3.org/2000/svg" xmlns:xlink="http://www.w3.org/1999/xlink">
    <!-- Generator: Sketch 50.2 (55047) - http://www.bohemiancoding.com/sketch -->
    <title>linkedin</title>
    <desc>Created with Sketch.</desc>
    <defs></defs>
    <g id="Symbols" stroke="none" stroke-width="1" fill="none" fill-rule="evenodd">
        <g id="Footer" transform="translate(-1073.000000, -275.000000)">
            <g id="linkedin" transform="translate(1073.000000, 275.000000)">
                <rect id="Rectangle" x="0" y="0" width="24" height="24"></rect>
                <circle id="Oval" stroke="#6750AB" stroke-width="2" cx="12" cy="12" r="11"></circle>
                <path d="M6.82061917,10.0435162 L8.9468913,10.0435162 L8.9468913,17.453847 L6.82061917,17.453847 L6.82061917,10.0435162 Z M7.82955614,9.1166137 L7.81416232,9.1166137 C7.04447105,9.1166137 6.54545455,8.55013446 6.54545455,7.83278036 C6.54545455,7.10075787 7.05922347,6.54545455 7.84430856,6.54545455 C8.62875224,6.54545455 9.11109211,7.09936088 9.12648593,7.83068487 C9.12648593,8.54803898 8.62875224,9.1166137 7.82955614,9.1166137 L7.82955614,9.1166137 Z M17.4545455,17.4545455 L15.0434876,17.4545455 L15.0434876,13.6191108 C15.0434876,12.6153739 14.6663388,11.930849 13.8369965,11.930849 C13.2026426,11.930849 12.8498674,12.392554 12.6856666,12.8388922 C12.6240913,12.998149 12.6337125,13.2209688 12.6337125,13.4444871 L12.6337125,17.4545455 L10.2451039,17.4545455 C10.2451039,17.4545455 10.2758916,10.6609856 10.2451039,10.0435162 L12.6337125,10.0435162 L12.6337125,11.20651 C12.7748225,10.6980058 13.5380997,9.97226976 14.7561361,9.97226976 C16.2672967,9.97226976 17.4545455,11.0388712 17.4545455,13.3334265 L17.4545455,17.4545455 L17.4545455,17.4545455 Z" id="Shape" fill="#6750AB"></path>
            </g>
        </g>
    </g>
</svg>